# xmcd CD database file
#
# Track frame offsets:
#	150
#	33892
#	49760
#	69482
#
# Disc length: 1191 seconds
#
# Revision: 0
# Processed by: cddbd v1.5.1PL0 Copyright (c) Steve Scherf et al.
# Submitted via: CDex 1.51
#
DISCID=2c04a504
DTITLE=ビイドロ - 衛星軌道上
DYEAR=2004
DGENRE=Rock
TTITLE0=衛星軌道上
TTITLE1=おやすみ／しあわせ
TTITLE2=水族館〜パプリカ畑
TTITLE3=つよいひと
EXTD=YEAR: 2004
EXTT0=
EXTT1=
EXTT2=
EXTT3=
PLAYORDER=
